<svg width="120" height="41" viewBox="0 0 120 41" fill="none" xmlns="http://www.w3.org/2000/svg">
<path d="M16.72 27L18.768 14.936H21.872L24.288 21.368L26.688 14.936H29.792L31.84 27H28.72L27.68 20.056L24.832 27H23.584L20.88 20.056L19.84 27H16.72ZM36.4025 20.968C36.4025 21.448 36.4932 21.8907 36.6745 22.296C36.8558 22.7013 37.1012 23.0533 37.4105 23.352C37.7198 23.6507 38.0772 23.8853 38.4825 24.056C38.8985 24.216 39.3358 24.296 39.7945 24.296C40.2532 24.296 40.6852 24.216 41.0905 24.056C41.5065 23.8853 41.8692 23.6507 42.1785 23.352C42.4985 23.0533 42.7492 22.7013 42.9305 22.296C43.1118 21.8907 43.2025 21.448 43.2025 20.968C43.2025 20.488 43.1118 20.0453 42.9305 19.64C42.7492 19.2347 42.4985 18.8827 42.1785 18.584C41.8692 18.2853 41.5065 18.056 41.0905 17.896C40.6852 17.7253 40.2532 17.64 39.7945 17.64C39.3358 17.64 38.8985 17.7253 38.4825 17.896C38.0772 18.056 37.7198 18.2853 37.4105 18.584C37.1012 18.8827 36.8558 19.2347 36.6745 19.64C36.4932 20.0453 36.4025 20.488 36.4025 20.968ZM33.1225 20.968C33.1225 20.072 33.2878 19.24 33.6185 18.472C33.9492 17.6933 34.4078 17.016 34.9945 16.44C35.5812 15.864 36.2798 15.416 37.0905 15.096C37.9118 14.7653 38.8132 14.6 39.7945 14.6C40.7652 14.6 41.6612 14.7653 42.4825 15.096C43.3038 15.416 44.0078 15.864 44.5945 16.44C45.1918 17.016 45.6558 17.6933 45.9865 18.472C46.3172 19.24 46.4825 20.072 46.4825 20.968C46.4825 21.864 46.3172 22.7013 45.9865 23.48C45.6558 24.248 45.1918 24.92 44.5945 25.496C44.0078 26.072 43.3038 26.5253 42.4825 26.856C41.6612 27.176 40.7652 27.336 39.7945 27.336C38.8132 27.336 37.9118 27.176 37.0905 26.856C36.2798 26.5253 35.5812 26.072 34.9945 25.496C34.4078 24.92 33.9492 24.248 33.6185 23.48C33.2878 22.7013 33.1225 21.864 33.1225 20.968ZM54.3946 22.52L52.9866 18.504L51.5786 22.52H54.3946ZM55.2266 24.904H50.7466L50.0266 27H46.6826L51.2746 14.936H54.6986L59.2906 27H55.9466L55.2266 24.904ZM64.5475 17.592V27H61.4115V17.592H58.8355V14.936H67.1235V17.592H64.5475ZM71.4944 14.936V24.344H75.2544V27H68.3584V14.936H71.4944ZM79.2156 20.968C79.2156 21.448 79.3063 21.8907 79.4876 22.296C79.669 22.7013 79.9143 23.0533 80.2236 23.352C80.533 23.6507 80.8903 23.8853 81.2956 24.056C81.7116 24.216 82.149 24.296 82.6076 24.296C83.0663 24.296 83.4983 24.216 83.9036 24.056C84.3196 23.8853 84.6823 23.6507 84.9916 23.352C85.3116 23.0533 85.5623 22.7013 85.7436 22.296C85.925 21.8907 86.0156 21.448 86.0156 20.968C86.0156 20.488 85.925 20.0453 85.7436 19.64C85.5623 19.2347 85.3116 18.8827 84.9916 18.584C84.6823 18.2853 84.3196 18.056 83.9036 17.896C83.4983 17.7253 83.0663 17.64 82.6076 17.64C82.149 17.64 81.7116 17.7253 81.2956 17.896C80.8903 18.056 80.533 18.2853 80.2236 18.584C79.9143 18.8827 79.669 19.2347 79.4876 19.64C79.3063 20.0453 79.2156 20.488 79.2156 20.968ZM75.9356 20.968C75.9356 20.072 76.101 19.24 76.4316 18.472C76.7623 17.6933 77.221 17.016 77.8076 16.44C78.3943 15.864 79.093 15.416 79.9036 15.096C80.725 14.7653 81.6263 14.6 82.6076 14.6C83.5783 14.6 84.4743 14.7653 85.2956 15.096C86.117 15.416 86.821 15.864 87.4076 16.44C88.005 17.016 88.469 17.6933 88.7996 18.472C89.1303 19.24 89.2956 20.072 89.2956 20.968C89.2956 21.864 89.1303 22.7013 88.7996 23.48C88.469 24.248 88.005 24.92 87.4076 25.496C86.821 26.072 86.117 26.5253 85.2956 26.856C84.4743 27.176 83.5783 27.336 82.6076 27.336C81.6263 27.336 80.725 27.176 79.9036 26.856C79.093 26.5253 78.3943 26.072 77.8076 25.496C77.221 24.92 76.7623 24.248 76.4316 23.48C76.101 22.7013 75.9356 21.864 75.9356 20.968ZM96.9885 20.248H103.213C103.213 20.888 103.186 21.4693 103.133 21.992C103.079 22.5147 102.973 23 102.813 23.448C102.589 24.0773 102.285 24.6373 101.901 25.128C101.517 25.608 101.063 26.0133 100.541 26.344C100.029 26.664 99.4632 26.9093 98.8445 27.08C98.2258 27.2507 97.5752 27.336 96.8925 27.336C95.9538 27.336 95.0952 27.1813 94.3165 26.872C93.5485 26.5627 92.8872 26.1307 92.3325 25.576C91.7778 25.0107 91.3458 24.3387 91.0365 23.56C90.7272 22.7707 90.5725 21.9013 90.5725 20.952C90.5725 20.0133 90.7218 19.1547 91.0205 18.376C91.3298 17.5867 91.7618 16.9147 92.3165 16.36C92.8818 15.8053 93.5592 15.3733 94.3485 15.064C95.1378 14.7547 96.0178 14.6 96.9885 14.6C98.2472 14.6 99.3512 14.872 100.301 15.416C101.25 15.96 102.002 16.8027 102.557 17.944L99.5805 19.176C99.3032 18.5147 98.9405 18.04 98.4925 17.752C98.0552 17.464 97.5538 17.32 96.9885 17.32C96.5192 17.32 96.0925 17.4107 95.7085 17.592C95.3245 17.7627 94.9938 18.0133 94.7165 18.344C94.4498 18.664 94.2365 19.0533 94.0765 19.512C93.9272 19.9707 93.8525 20.4827 93.8525 21.048C93.8525 21.56 93.9165 22.0347 94.0445 22.472C94.1832 22.9093 94.3858 23.288 94.6525 23.608C94.9192 23.928 95.2498 24.1787 95.6445 24.36C96.0392 24.5307 96.4978 24.616 97.0205 24.616C97.3298 24.616 97.6285 24.584 97.9165 24.52C98.2045 24.4453 98.4605 24.3333 98.6845 24.184C98.9192 24.024 99.1112 23.8213 99.2605 23.576C99.4098 23.3307 99.5112 23.032 99.5645 22.68H96.9885V20.248Z" fill="black"/>
<rect x="7.25" y="7.25" width="105.5" height="26.5" rx="13.25" stroke="black" stroke-width="2.5"/>
<rect x="1.25" y="1.25" width="117.5" height="38.5" rx="19.25" stroke="black" stroke-width="2.5"/>
</svg>
